<svg width="15" height="11" viewBox="0 0 15 11" fill="none" xmlns="http://www.w3.org/2000/svg">
<path d="M14.6869 1.6423C14.6016 1.32428 14.4341 1.03427 14.2014 0.801288C13.9688 0.568305 13.679 0.400522 13.361 0.314732C12.1908 6.38621e-08 7.5 0 7.5 0C7.5 0 2.80915 -6.38621e-08 1.63895 0.313058C1.3209 0.39857 1.03096 0.566259 0.798224 0.799286C0.565492 1.03231 0.398168 1.32247 0.313058 1.64063C-6.38621e-08 2.8125 0 5.2567 0 5.2567C0 5.2567 -6.38621e-08 7.7009 0.313058 8.8711C0.485491 9.5173 0.99442 10.0262 1.63895 10.1987C2.80915 10.5134 7.5 10.5134 7.5 10.5134C7.5 10.5134 12.1908 10.5134 13.361 10.1987C14.0073 10.0262 14.5145 9.5173 14.6869 8.8711C15 7.7009 15 5.2567 15 5.2567C15 5.2567 15 2.8125 14.6869 1.6423ZM6.01004 7.5V3.01339L9.89397 5.23996L6.01004 7.5Z" fill="white"/>
</svg>
