<svg width="15" height="13" viewBox="0 0 15 13" fill="none" xmlns="http://www.w3.org/2000/svg">
<path d="M15 1.52208C14.4384 1.78451 13.8426 1.95669 13.2326 2.03286C13.8751 1.62736 14.356 0.989271 14.5855 0.237518C13.9815 0.615685 13.3206 0.88198 12.6315 1.02486C12.3435 0.700927 11.9956 0.442819 11.6092 0.266529C11.2228 0.0902388 10.8062 -0.000477523 10.3852 1.89029e-06C8.68583 1.89029e-06 7.30783 1.45304 7.30783 3.24592C7.30783 3.50008 7.3351 3.74808 7.3877 3.9858C4.83001 3.8504 2.56256 2.55803 1.0447 0.593999C0.771022 1.08939 0.627214 1.65265 0.628027 2.226C0.627624 2.76041 0.752382 3.28666 0.991217 3.75798C1.23005 4.22929 1.57557 4.63108 1.99706 4.92765C1.50845 4.91128 1.03061 4.77209 0.603288 4.52165C0.602898 4.53521 0.602898 4.54857 0.602898 4.56254C0.602898 6.13475 1.66357 7.44664 3.07118 7.74518C2.61793 7.8746 2.14271 7.89357 1.68149 7.80065C2.07304 9.08994 3.20948 10.0287 4.55612 10.055C3.46602 10.9573 2.11989 11.4467 0.734192 11.4446C0.485825 11.4446 0.240965 11.4294 0 11.3992C1.40709 12.3527 3.04471 12.8589 4.71722 12.8571C10.3776 12.8571 13.473 7.9114 13.473 3.62254C13.473 3.482 13.4699 3.34167 13.464 3.20216C14.0668 2.74313 14.587 2.17416 15 1.52208Z" fill="white"/>
</svg>
