<svg width="135" height="135" viewBox="0 0 135 135" fill="none" xmlns="http://www.w3.org/2000/svg">
<circle cx="67.5" cy="67.5" r="64.5" fill="#FE9103" stroke="#FE9103" stroke-width="6"/>
<mask id="mask0_294_249" style="mask-type:luminance" maskUnits="userSpaceOnUse" x="22" y="22" width="92" height="93">
<path d="M113.527 65.5187L65.0454 22.4731L21.9999 70.9546L70.4814 114L113.527 65.5187Z" fill="white"/>
</mask>
<g mask="url(#mask0_294_249)">
<path d="M96.1162 81.0062C96.6997 79.2902 96.6265 77.615 95.9019 76.1615L95.8924 76.1416C95.5578 75.486 95.103 74.8983 94.5508 74.4099L94.4902 74.3556C91.877 72.1042 87.2968 71.9588 83.0952 73.9938C80.0198 75.4797 77.6565 77.9151 76.7718 80.5106C76.1862 82.2255 76.2615 83.9028 76.9904 85.3616L76.9987 85.3773C77.3334 86.0329 77.7882 86.6206 78.3393 87.1089C80.9431 89.421 85.5505 89.5914 89.8148 87.5356C92.8746 86.0413 95.2316 83.6027 96.1162 81.0062ZM73.4632 85.7621C72.7689 83.5473 72.1143 81.4527 72.5441 79.1187C73.7424 72.6647 74.4661 68.7684 70.4537 65.2067C66.4413 61.644 62.6549 62.8194 56.3817 64.7696C54.1115 65.4724 51.9511 65.0687 49.662 64.641C47.0373 64.1506 44.3269 63.6424 41.7064 65.0562C40.7412 65.5466 39.8774 66.2169 39.1643 67.0325C36.1422 70.4363 36.3346 75.5602 39.5919 78.4526C41.2724 79.9449 43.5782 80.9508 46.0188 82.0143C48.3643 83.038 50.7904 84.0952 52.4164 85.5404C54.0435 86.9845 55.3768 89.2631 56.6641 91.4664C58.0088 93.7565 59.272 95.919 60.9577 97.4154C64.2098 100.304 69.316 99.8832 72.3381 96.4795C73.0606 95.6711 73.6211 94.7321 73.9903 93.7125C75.0851 90.9425 74.2601 88.3083 73.4632 85.7621ZM63.3722 52.9658C63.2436 55.3803 63.9819 57.4278 65.4521 58.7328C65.6529 58.9116 65.8662 59.0737 66.091 59.2212C69.5565 61.4914 74.7871 59.447 78.0057 54.5594C79.3599 52.5057 80.1651 50.1874 80.2781 48.0384C80.4056 45.6291 79.6642 43.5806 78.195 42.2766C77.9942 42.0989 77.7809 41.9357 77.5561 41.7893C74.0907 39.5181 68.86 41.5624 65.6414 46.45C64.2893 48.5006 63.4851 50.8169 63.3722 52.9658ZM76.9151 68.8311C77.0866 69.0371 77.2738 69.2296 77.4745 69.4073C78.9448 70.7134 81.0655 71.2038 83.4476 70.7908C85.5672 70.4227 87.7684 69.3477 89.6496 67.7624C94.12 63.9895 95.5306 58.554 92.8672 55.3803C92.6958 55.1743 92.5086 54.9819 92.3078 54.8031C90.8375 53.5012 88.7158 53.0076 86.3379 53.4196C84.2172 53.7856 82.0108 54.8595 80.1317 56.4501C75.6613 60.2229 74.2496 65.6585 76.9151 68.8311ZM49.6505 61.0951L49.6673 61.1024C51.2003 61.6514 52.8723 61.528 54.5057 60.7437C56.9799 59.5547 59.1173 56.9227 60.2309 53.6946C61.7712 49.2264 61.0581 44.6723 58.4574 42.3624C57.9074 41.873 57.2695 41.4903 56.5783 41.2362L56.5605 41.2288C55.0349 40.6788 53.3586 40.8064 51.7263 41.5896C49.2511 42.7796 47.1137 45.4116 46.001 48.6397C44.4607 53.1069 45.1728 57.662 47.7745 59.9709C48.3235 60.4603 48.9604 60.841 49.6505 61.0951Z" fill="white"/>
</g>
</svg>
