<svg width="80" height="80" viewBox="0 0 80 80" fill="none" xmlns="http://www.w3.org/2000/svg">
<path d="M10 40H40V45H10V40ZM5 27.5H30V32.5H5V27.5Z" fill="#500E9C"/>
<path d="M74.7976 41.515L67.2976 24.015C67.1049 23.5654 66.7845 23.1822 66.3761 22.9129C65.9677 22.6436 65.4893 22.5001 65.0001 22.5H57.5001V17.5C57.5001 16.837 57.2367 16.2011 56.7679 15.7322C56.299 15.2634 55.6631 15 55.0001 15H15.0001V20H52.5001V51.39C51.3616 52.0523 50.3652 52.9331 49.5681 53.9816C48.771 55.0302 48.1888 56.2258 47.8551 57.5H32.1451C31.5366 55.1434 30.0895 53.0895 28.0751 51.7235C26.0606 50.3575 23.6171 49.773 21.2026 50.0797C18.7881 50.3864 16.5683 51.5632 14.9593 53.3894C13.3503 55.2157 12.4626 57.5661 12.4626 60C12.4626 62.4339 13.3503 64.7843 14.9593 66.6106C16.5683 68.4368 18.7881 69.6136 21.2026 69.9203C23.6171 70.227 26.0606 69.6425 28.0751 68.2765C30.0895 66.9105 31.5366 64.8566 32.1451 62.5H47.8551C48.3989 64.6456 49.6427 66.5486 51.3895 67.9079C53.1364 69.2673 55.2867 70.0053 57.5001 70.0053C59.7136 70.0053 61.8638 69.2673 63.6107 67.9079C65.3575 66.5486 66.6013 64.6456 67.1451 62.5H72.5001C73.1631 62.5 73.799 62.2366 74.2679 61.7678C74.7367 61.2989 75.0001 60.663 75.0001 60V42.5C75 42.1613 74.9311 41.8262 74.7976 41.515ZM22.5001 65C21.5112 65 20.5445 64.7068 19.7223 64.1573C18.9 63.6079 18.2591 62.827 17.8807 61.9134C17.5023 60.9998 17.4033 59.9945 17.5962 59.0245C17.7891 58.0546 18.2653 57.1637 18.9646 56.4645C19.6638 55.7652 20.5547 55.289 21.5247 55.0961C22.4946 54.9031 23.4999 55.0022 24.4135 55.3806C25.3272 55.759 26.108 56.3999 26.6575 57.2221C27.2069 58.0444 27.5001 59.0111 27.5001 60C27.5001 61.3261 26.9733 62.5979 26.0356 63.5355C25.098 64.4732 23.8262 65 22.5001 65ZM57.5001 27.5H63.3501L68.7101 40H57.5001V27.5ZM57.5001 65C56.5112 65 55.5445 64.7068 54.7223 64.1573C53.9 63.6079 53.2591 62.827 52.8807 61.9134C52.5023 60.9998 52.4033 59.9945 52.5962 59.0245C52.7891 58.0546 53.2653 57.1637 53.9646 56.4645C54.6638 55.7652 55.5547 55.289 56.5247 55.0961C57.4946 54.9031 58.4999 55.0022 59.4135 55.3806C60.3272 55.759 61.108 56.3999 61.6574 57.2221C62.2069 58.0444 62.5001 59.0111 62.5001 60C62.5001 61.3261 61.9733 62.5979 61.0356 63.5355C60.098 64.4732 58.8262 65 57.5001 65ZM70.0001 57.5H67.1451C66.5944 55.3586 65.3487 53.4604 63.6032 52.1031C61.8577 50.7459 59.7112 50.0061 57.5001 50V45H70.0001V57.5Z" fill="#500E9C"/>
</svg>
