<svg width="63" height="70" viewBox="0 0 63 70" fill="none" xmlns="http://www.w3.org/2000/svg">
<path d="M57.3172 38.1585C59.658 34.7936 61.0711 30.8715 61.4143 26.787C61.7575 22.7024 61.0187 18.5995 59.2722 14.8912C57.5256 11.183 54.8331 8.00026 51.4655 5.6634C48.0979 3.32655 44.1742 1.91804 40.0892 1.57965C36.0042 1.24127 31.9022 1.98495 28.196 3.73584C24.4898 5.48673 21.3102 8.18305 18.9773 11.5534C16.6444 14.9237 15.2406 18.8491 14.907 22.9345C14.5734 27.0198 15.3219 31.121 17.0772 34.8251" stroke="#500E9C" stroke-width="3" stroke-linecap="round" stroke-linejoin="round"/>
<path d="M38.1672 14.8252C34.4838 14.8252 31.5005 17.0652 31.5005 19.8252C31.5005 22.5852 34.4838 24.8252 38.1672 24.8252C41.8505 24.8252 44.8338 27.0652 44.8338 29.8252C44.8338 32.5852 41.8505 34.8252 38.1672 34.8252M38.1672 14.8252C41.0672 14.8252 43.5405 16.2152 44.4538 18.1585M38.1672 14.8252V11.4918M38.1672 34.8252C35.2672 34.8252 32.7938 33.4352 31.8805 31.4918M38.1672 34.8252V38.1585" stroke="#500E9C" stroke-width="3" stroke-linecap="round"/>
<path d="M1.50049 41.4918H9.48382C10.4638 41.4918 11.4305 41.7118 12.3072 42.1385L19.1138 45.4318C19.9905 45.8552 20.9572 46.0752 21.9405 46.0752H25.4138C28.7738 46.0752 31.5005 48.7118 31.5005 51.9652C31.5005 52.0985 31.4105 52.2118 31.2805 52.2485L22.8105 54.5918C21.2907 55.0117 19.67 54.8648 18.2505 54.1785L10.9738 50.6585M31.5005 49.8252L46.8105 45.1218C48.1433 44.7128 49.5713 44.7353 50.8906 45.1861C52.21 45.6368 53.3532 46.4928 54.1572 47.6318C55.3872 49.3318 54.8872 51.7718 53.0938 52.8052L28.0438 67.2618C27.2605 67.715 26.3932 68.004 25.4946 68.1112C24.596 68.2183 23.6851 68.1414 22.8172 67.8851L1.50049 61.5585" stroke="#500E9C" stroke-width="3" stroke-linecap="round" stroke-linejoin="round"/>
</svg>
