<svg width="42" height="42" viewBox="0 0 42 42" fill="none" xmlns="http://www.w3.org/2000/svg">
<path d="M41.63 28.2768C42.041 27.068 41.9894 25.888 41.479 24.8641L41.4723 24.8501C41.2366 24.3882 40.9162 23.9743 40.5273 23.6303L40.4846 23.592C38.6438 22.006 35.4174 21.9037 32.4577 23.3371C30.2914 24.3838 28.6267 26.0994 28.0035 27.9276C27.591 29.1357 27.644 30.3172 28.1574 31.3447L28.1633 31.3558C28.399 31.8176 28.7195 32.2316 29.1077 32.5756C30.9418 34.2043 34.1873 34.3243 37.1912 32.8761C39.3465 31.8235 41.0068 30.1058 41.63 28.2768ZM25.6729 31.6269C25.1838 30.0667 24.7226 28.5913 25.0254 26.9472C25.8695 22.4009 26.3793 19.6563 23.5529 17.1474C20.7265 14.6378 18.0593 15.4657 13.6404 16.8395C12.0412 17.3345 10.5194 17.0501 8.90695 16.7489C7.05807 16.4034 5.14878 16.0454 3.30285 17.0413C2.62296 17.3868 2.01452 17.8589 1.51215 18.4335C-0.61664 20.8312 -0.481107 24.4405 1.81342 26.478C2.99715 27.5291 4.62137 28.2377 6.34061 28.9869C7.99282 29.708 9.70175 30.4527 10.8472 31.4707C11.9933 32.488 12.9325 34.093 13.8393 35.6451C14.7865 37.2582 15.6764 38.7815 16.8638 39.8356C19.1546 41.8701 22.7515 41.574 24.8803 39.1763C25.3893 38.607 25.7841 37.9455 26.0441 37.2273C26.8153 35.276 26.2342 33.4205 25.6729 31.6269ZM18.5646 8.52467C18.474 10.2255 18.994 11.6678 20.0297 12.5871C20.1711 12.713 20.3214 12.8272 20.4798 12.931C22.9209 14.5302 26.6054 13.0902 28.8727 9.64726C29.8266 8.20056 30.3938 6.5675 30.4733 5.05377C30.5632 3.35663 30.0409 1.91362 29.006 0.995073C28.8646 0.86985 28.7143 0.754936 28.5559 0.651811C26.1148 -0.948099 22.4303 0.491968 20.163 3.93487C19.2106 5.37935 18.6442 7.01094 18.5646 8.52467ZM28.1044 19.7005C28.2252 19.8456 28.3571 19.9811 28.4985 20.1063C29.5342 21.0264 31.028 21.3718 32.706 21.0809C34.1991 20.8216 35.7496 20.0643 37.0748 18.9477C40.2238 16.29 41.2175 12.4611 39.3413 10.2255C39.2205 10.0804 39.0887 9.94484 38.9473 9.81888C37.9116 8.9018 36.417 8.55412 34.742 8.84435C33.2481 9.10216 31.6939 9.85866 30.3702 10.979C27.2212 13.6367 26.2268 17.4656 28.1044 19.7005ZM8.89885 14.2511L8.91064 14.2562C9.9905 14.6429 11.1683 14.556 12.3189 14.0035C14.0617 13.166 15.5673 11.312 16.3518 9.03808C17.4369 5.89056 16.9345 2.68264 15.1025 1.05547C14.7151 0.710743 14.2658 0.441137 13.7789 0.262141L13.7663 0.256993C12.6916 -0.130462 11.5109 -0.0405949 10.361 0.511124C8.61746 1.34938 7.11184 3.20341 6.32809 5.47732C5.24306 8.6241 5.74469 11.8328 7.57737 13.4592C7.96409 13.8039 8.41269 14.0721 8.89885 14.2511Z" fill="#FE9103"/>
</svg>
